<?xml version="1.0" encoding="utf-8"?>
<!-- Generator: Adobe Illustrator 15.1.0, SVG Export Plug-In  -->
<!DOCTYPE svg PUBLIC "-//W3C//DTD SVG 1.1//EN" "http://www.w3.org/Graphics/SVG/1.1/DTD/svg11.dtd" [
	<!ENTITY ns_flows "http://ns.adobe.com/Flows/1.0/">
]>
<svg version="1.1"
	 xmlns="http://www.w3.org/2000/svg" xmlns:xlink="http://www.w3.org/1999/xlink" xmlns:a="http://ns.adobe.com/AdobeSVGViewerExtensions/3.0/"
	 x="0px" y="0px" width="76px" height="45px" viewBox="0.109 0 76 45" enable-background="new 0.109 0 76 45" xml:space="preserve">
<defs>
</defs>
<polygon fill="#FFFFFF" stroke="#939598" stroke-width="2" stroke-linecap="round" stroke-linejoin="round" stroke-miterlimit="10" points="
	74.959,43.654 1,43.654 13.209,24.46 62.75,24.46 "/>
<polygon fill="#FFFFFF" points="20.361,18.398 27.254,18.398 27.254,20.351 28.986,22.304 28.986,32.773 18.998,32.773 
	18.998,22.269 19.992,20.646 "/>
<polygon fill="#FFFFFF" points="34.605,18.398 41.496,18.398 41.496,20.351 43.23,22.304 43.23,32.773 33.24,32.773 33.24,22.269 
	34.236,20.646 "/>
<polygon fill="#FFFFFF" points="49.201,18.398 56.094,18.398 56.094,20.351 57.826,22.304 57.826,32.773 47.838,32.773 
	47.838,22.269 48.832,20.646 "/>
<path fill="#35C0CA" d="M19.672,20.06c-0.004,0.039-0.037,0.135-0.059,0.166l-1.234,1.555c-0.186,0.236-0.318,0.607-0.318,0.906
	V32.5c0,0.496,0.404,0.9,0.9,0.9h9.818c0.498,0,0.898-0.404,0.898-0.9v-9.813c0-0.301-0.133-0.676-0.322-0.91L28,20.121
	c-0.023-0.033-0.055-0.121-0.059-0.154v-1.414c0-0.119-0.023-0.232-0.064-0.336c0.273-0.23,0.453-0.617,0.453-1.061
	c0-0.705-0.457-1.275-1.02-1.275h-7.027c-0.564,0-1.021,0.57-1.021,1.275c0,0.451,0.188,0.844,0.471,1.07
	c-0.039,0.102-0.061,0.211-0.061,0.326V20.06z M28.426,22.533c0.023,0.033,0.053,0.121,0.057,0.154v9.516H19.26v-1.15h6.314
	c0.496,0,0.898-0.402,0.898-0.898v-6.238c0-0.494-0.402-0.898-0.898-0.898H19.26v-0.326c0.002-0.039,0.035-0.135,0.059-0.164
	l1.234-1.559c0.186-0.232,0.316-0.605,0.316-0.904v-1.211h5.875v1.113c0,0.301,0.135,0.676,0.326,0.908L28.426,22.533z
	 M19.26,24.214h6.016v5.641H19.26V24.214z M19.26,24.214"/>
<path fill="#939598" d="M34.037,20.06c-0.004,0.039-0.037,0.135-0.059,0.166l-1.234,1.555c-0.186,0.236-0.316,0.607-0.316,0.906
	V32.5c0,0.496,0.404,0.9,0.898,0.9h9.82c0.496,0,0.896-0.404,0.896-0.9v-9.813c0-0.301-0.133-0.676-0.322-0.91l-1.355-1.656
	c-0.023-0.033-0.057-0.121-0.059-0.154v-1.414c0-0.119-0.023-0.232-0.064-0.336c0.273-0.23,0.453-0.617,0.453-1.061
	c0-0.705-0.457-1.275-1.02-1.275h-7.027c-0.564,0-1.023,0.57-1.023,1.275c0,0.451,0.189,0.844,0.475,1.07
	c-0.041,0.102-0.063,0.211-0.063,0.326V20.06z M42.791,22.533c0.023,0.033,0.053,0.121,0.057,0.154v9.516h-9.223v-1.15h6.314
	c0.496,0,0.898-0.402,0.898-0.898v-6.238c0-0.494-0.402-0.898-0.898-0.898h-6.314v-0.326c0.002-0.039,0.035-0.135,0.057-0.164
	l1.236-1.559c0.186-0.232,0.316-0.605,0.316-0.904v-1.211h5.875v1.113c0,0.301,0.135,0.676,0.326,0.908L42.791,22.533z
	 M33.625,24.214h6.016v5.641h-6.016V24.214z M33.625,24.214"/>
<path fill="#939598" d="M48.402,20.06c-0.004,0.039-0.037,0.135-0.059,0.166l-1.234,1.555c-0.186,0.236-0.316,0.607-0.316,0.906
	V32.5c0,0.496,0.404,0.9,0.896,0.9h9.82c0.496,0,0.898-0.404,0.898-0.9v-9.813c0-0.301-0.133-0.676-0.322-0.91l-1.355-1.656
	c-0.023-0.033-0.057-0.121-0.057-0.154v-1.414c0-0.119-0.025-0.232-0.066-0.336c0.273-0.23,0.453-0.617,0.453-1.061
	c0-0.705-0.457-1.275-1.021-1.275h-7.025c-0.564,0-1.023,0.57-1.023,1.275c0,0.451,0.191,0.844,0.473,1.07
	c-0.039,0.102-0.061,0.211-0.061,0.326V20.06z M57.156,22.533c0.023,0.033,0.053,0.121,0.057,0.154v9.516H47.99v-1.15h6.314
	c0.496,0,0.898-0.402,0.898-0.898v-6.238c0-0.494-0.402-0.898-0.898-0.898H47.99v-0.326c0.002-0.039,0.035-0.135,0.057-0.164
	l1.236-1.559c0.186-0.232,0.316-0.605,0.316-0.904v-1.211h5.875v1.113c0,0.301,0.135,0.676,0.326,0.908L57.156,22.533z
	 M47.99,24.214h6.016v5.641H47.99V24.214z M47.99,24.214"/>
<path fill="#35C0CA" d="M19.986,6.556l3.348-1.847l-2.629,9.097l-9.092-2.631l3.43-1.893C12.734,5.096,4.195,0.927,0.109,0.45
	C4.754-1.026,15.916,1.16,19.986,6.556L19.986,6.556z M19.986,6.556"/>
</svg>
