<?xml version="1.0" encoding="utf-8"?>
<!-- Generator: Adobe Illustrator 15.1.0, SVG Export Plug-In  -->
<!DOCTYPE svg PUBLIC "-//W3C//DTD SVG 1.1//EN" "http://www.w3.org/Graphics/SVG/1.1/DTD/svg11.dtd" [
	<!ENTITY ns_flows "http://ns.adobe.com/Flows/1.0/">
]>
<svg version="1.1"
	 xmlns="http://www.w3.org/2000/svg" xmlns:xlink="http://www.w3.org/1999/xlink" xmlns:a="http://ns.adobe.com/AdobeSVGViewerExtensions/3.0/"
	 x="0px" y="0px" width="17px" height="21px" viewBox="0 0 17 21" enable-background="new 0 0 17 21" xml:space="preserve">
<defs>
</defs>
<path fill="#35C0CA" d="M8.252,10.51c-2.896,0-5.253-2.357-5.253-5.256C2.999,2.357,5.355,0,8.252,0
	c2.897,0,5.254,2.357,5.254,5.254C13.506,8.152,11.149,10.51,8.252,10.51z M8.252,2C6.458,2,4.999,3.459,4.999,5.254
	S6.458,8.51,8.252,8.51s3.254-1.461,3.254-3.256S10.046,2,8.252,2z"/>
<path fill="#35C0CA" d="M2,21.011v-4.928c0-0.785,0-2.871,5.162-2.883l0.791-0.009c0.337-0.006,0.691-0.011,1.055-0.011
	c1.107,0,2.52,0.046,3.618,0.406c1.316,0.435,1.878,1.175,1.878,2.477v4.947h2v-4.947c0-1.507-0.564-3.491-3.253-4.376
	c-1.37-0.449-2.987-0.507-4.243-0.507c-0.374,0-0.738,0.006-1.085,0.011L7.156,11.2C1.242,11.215,0,13.863,0,16.083v4.928H2z"/>
</svg>
