<?xml version="1.0" encoding="utf-8"?>
<!-- Generator: Adobe Illustrator 15.1.0, SVG Export Plug-In  -->
<!DOCTYPE svg PUBLIC "-//W3C//DTD SVG 1.1//EN" "http://www.w3.org/Graphics/SVG/1.1/DTD/svg11.dtd" [
	<!ENTITY ns_flows "http://ns.adobe.com/Flows/1.0/">
]>
<svg version="1.1"
	 xmlns="http://www.w3.org/2000/svg" xmlns:xlink="http://www.w3.org/1999/xlink" xmlns:a="http://ns.adobe.com/AdobeSVGViewerExtensions/3.0/"
	 x="0px" y="0px" width="47px" height="48px" viewBox="-0.01 -0.023 47 48" enable-background="new -0.01 -0.023 47 48"
	 xml:space="preserve">
<defs>
</defs>
<circle fill="#FFFFFF" stroke="#35C0CA" stroke-width="2" stroke-miterlimit="10" cx="27.097" cy="10.739" r="9.739"/>
<path fill="#35C0CA" d="M24.959,17.521h1.381v-1.346h0.607v1.346h1.379v-1.375c0.701-0.066,1.307-0.248,1.813-0.549
	c0.891-0.507,1.338-1.337,1.338-2.495c0-0.665-0.223-1.224-0.666-1.665c-0.447-0.434-1.035-0.685-1.775-0.755v-0.017
	c1.383-0.275,2.09-1.07,2.123-2.391c-0.049-1.645-1-2.542-2.832-2.699V3.957h-1.379v1.586H26.34V3.957h-1.381v1.586H23.99v10.632
	h0.969V17.521z M26.127,7.218h0.975c0.6,0.007,1.023,0.069,1.281,0.184c0.426,0.202,0.639,0.587,0.639,1.162
	c0,0.86-0.672,1.291-2.006,1.291h-0.889V7.218z M26.127,11.428h1.004c1.471,0,2.207,0.534,2.207,1.598
	c0,0.982-0.736,1.475-2.207,1.475h-1.004V11.428z"/>
<path fill="#FFFFFF" stroke="#939598" stroke-width="2" stroke-miterlimit="10" d="M43.363,30.056
	c-2.355-0.07-5.656,1.984-8.752,3.059c-3.793,1.313-9.34-0.537-9.344-0.537c0.912-0.326,4.545-0.85,5.293-1.098
	c3.959-1.322,3.959-4.846,2.145-4.98c-2.398-0.182-3.857,0.277-8.697,0.488c-3.67,0.158-7.934-0.416-10.063,0.18
	c-3.002,0.84-8.363,7.863-8.363,7.863l6.58,7.662c0,0,4.877-3.99,7.053-3.789c4.957,0.459,5.164,0.408,9.791,0.582
	c1.965,0.076,2.385,0.033,3.535-0.242c6.152-1.465,13.057-6.248,13.236-6.883C46.189,30.888,44.609,30.091,43.363,30.056z"/>
<rect x="1.103" y="36.794" transform="matrix(0.6647 0.7471 -0.7471 0.6647 32.2166 7.2216)" fill="#FFFFFF" stroke="#35C0CA" stroke-width="2" stroke-miterlimit="10" width="13.919" height="5.42"/>
</svg>
