<?xml version="1.0" encoding="utf-8"?>
<!-- Generator: Adobe Illustrator 15.1.0, SVG Export Plug-In  -->
<!DOCTYPE svg PUBLIC "-//W3C//DTD SVG 1.1//EN" "http://www.w3.org/Graphics/SVG/1.1/DTD/svg11.dtd" [
	<!ENTITY ns_flows "http://ns.adobe.com/Flows/1.0/">
]>
<svg version="1.1"
	 xmlns="http://www.w3.org/2000/svg" xmlns:xlink="http://www.w3.org/1999/xlink" xmlns:a="http://ns.adobe.com/AdobeSVGViewerExtensions/3.0/"
	 x="0px" y="0px" width="37px" height="7px" viewBox="0 0 37 7" enable-background="new 0 0 37 7" xml:space="preserve">
<defs>
</defs>
<path fill="#3AC0C3" d="M12.553,2.528l-0.176,0.388c-0.326-0.217-0.709-0.305-0.999-0.305c-0.467,0-0.771,0.176-0.771,0.481
	c0,0.931,2.04,0.445,2.034,1.76c0,0.605-0.533,0.994-1.31,0.994c-0.528,0-1.046-0.228-1.388-0.554l0.188-0.373
	c0.335,0.327,0.796,0.513,1.205,0.513c0.523,0,0.849-0.212,0.849-0.56c0.006-0.952-2.033-0.445-2.033-1.744
	c0-0.569,0.502-0.938,1.253-0.938C11.823,2.19,12.253,2.326,12.553,2.528z"/>
<path fill="#3AC0C3" d="M15.83,4.148V5.83h-0.404V4.257c0-0.481-0.289-0.767-0.771-0.767c-0.58,0.005-0.921,0.414-0.921,0.999V5.83
	h-0.405V1.989h0.405v1.724c0.187-0.424,0.559-0.621,1.062-0.626C15.446,3.086,15.83,3.49,15.83,4.148z"/>
<path fill="#3AC0C3" d="M17.036,2.32c0,0.161-0.114,0.28-0.265,0.28c-0.149,0-0.264-0.119-0.264-0.28c0-0.16,0.114-0.28,0.264-0.28
	C16.922,2.041,17.036,2.16,17.036,2.32z M16.575,5.83V3.102h0.398V5.83H16.575z"/>
<path fill="#3AC0C3" d="M18.438,2.833v0.352h0.782v0.332h-0.782V5.83H18.04V3.516h-0.352V3.185h0.352v-0.3
	c0-0.596,0.42-0.917,0.875-0.917c0.207,0.005,0.419,0.067,0.585,0.192l-0.166,0.326c-0.124-0.088-0.274-0.14-0.414-0.14
	C18.656,2.346,18.438,2.517,18.438,2.833z"/>
<path fill="#3AC0C3" d="M21.332,5.644c-0.191,0.129-0.398,0.202-0.615,0.207c-0.399,0-0.694-0.238-0.694-0.776V3.516h-0.394V3.19
	h0.394V2.47h0.398v0.72l0.864-0.006v0.332h-0.864v1.486c0,0.331,0.13,0.455,0.362,0.455c0.14,0,0.285-0.047,0.436-0.14L21.332,5.644
	z"/>
<path fill="#3AC0C3" d="M24.563,2.528l-0.176,0.388c-0.326-0.217-0.709-0.305-0.999-0.305c-0.466,0-0.771,0.176-0.771,0.481
	c0,0.931,2.038,0.445,2.033,1.76c0,0.605-0.533,0.994-1.31,0.994c-0.528,0-1.046-0.228-1.387-0.554l0.186-0.373
	c0.337,0.327,0.798,0.513,1.207,0.513c0.522,0,0.849-0.212,0.849-0.56C24.2,3.92,22.16,4.427,22.16,3.128
	c0-0.569,0.502-0.938,1.253-0.938C23.832,2.19,24.263,2.326,24.563,2.528z"/>
<path fill="#3AC0C3" d="M28.103,4.474c0,0.808-0.526,1.372-1.299,1.372c-0.486,0-0.858-0.223-1.062-0.6v1.589h-0.403V3.102h0.403
	v0.59c0.203-0.383,0.575-0.605,1.052-0.605C27.564,3.086,28.103,3.656,28.103,4.474z M27.694,4.464c0-0.585-0.403-1.015-0.974-1.015
	c-0.574,0-0.979,0.424-0.979,1.015c0,0.595,0.404,1.014,0.979,1.014C27.291,5.478,27.694,5.054,27.694,4.464z"/>
<path fill="#3AC0C3" d="M30.505,5.411c-0.217,0.295-0.563,0.44-0.999,0.44c-0.564,0-0.927-0.362-0.927-0.833
	c0-0.476,0.379-0.776,1.021-0.782h0.896v-0.16c0-0.398-0.249-0.637-0.73-0.637c-0.3,0-0.579,0.114-0.863,0.311l-0.172-0.295
	c0.353-0.232,0.647-0.367,1.113-0.367c0.673,0,1.046,0.357,1.051,0.942l0.005,1.801h-0.394V5.411z M30.5,4.888V4.562h-0.849
	c-0.456,0-0.693,0.14-0.693,0.441c0,0.3,0.243,0.497,0.626,0.497C30.045,5.499,30.396,5.266,30.5,4.888z"/>
<path fill="#3AC0C3" d="M33.927,3.496L33.705,3.78c-0.208-0.197-0.481-0.316-0.813-0.316c-0.564,0-0.968,0.409-0.968,1.004
	c0,0.596,0.403,1.009,0.968,1.009c0.357,0,0.652-0.124,0.845-0.352l0.232,0.248c-0.244,0.295-0.622,0.471-1.093,0.471
	c-0.791,0-1.352-0.564-1.352-1.377c0-0.813,0.565-1.377,1.352-1.377C33.315,3.086,33.679,3.237,33.927,3.496z"/>
<path fill="#3AC0C3" d="M36.924,4.625h-2.226c0.072,0.533,0.461,0.869,0.988,0.869c0.337,0,0.632-0.119,0.845-0.341l0.222,0.238
	c-0.258,0.289-0.642,0.455-1.097,0.455c-0.803,0-1.357-0.564-1.357-1.377c0-0.813,0.56-1.377,1.352-1.377
	C36.531,3.086,36.966,3.697,36.924,4.625z M36.562,4.292c-0.025-0.522-0.378-0.854-0.911-0.854c-0.517,0-0.89,0.337-0.952,0.854
	H36.562z"/>
<polygon fill="#3AC0C3" points="4.489,7.227 8.369,7.227 6.429,3.877 5.964,4.683 6.969,6.418 4.958,6.418 "/>
<polygon fill="#4C5051" points="4.025,6.418 1.401,6.418 4.185,1.612 5.495,3.877 5.964,3.072 4.185,0 0,7.227 3.557,7.227 "/>
</svg>
