<?xml version="1.0" encoding="utf-8"?>
<!-- Generator: Adobe Illustrator 15.1.0, SVG Export Plug-In  -->
<!DOCTYPE svg PUBLIC "-//W3C//DTD SVG 1.1//EN" "http://www.w3.org/Graphics/SVG/1.1/DTD/svg11.dtd" [
	<!ENTITY ns_flows "http://ns.adobe.com/Flows/1.0/">
]>
<svg version="1.1"
	 xmlns="http://www.w3.org/2000/svg" xmlns:xlink="http://www.w3.org/1999/xlink" xmlns:a="http://ns.adobe.com/AdobeSVGViewerExtensions/3.0/"
	 x="0px" y="0px" width="54px" height="59px" viewBox="-0.026 0 54 59" enable-background="new -0.026 0 54 59"
	 xml:space="preserve">
<defs>
</defs>
<path fill="#FFFFFF" stroke="#939598" stroke-width="2" stroke-miterlimit="10" d="M53.447,36.635c0,1.161-0.943,2.102-2.104,2.102
	H3.102C1.943,38.736,1,37.796,1,36.635V3.103C1,1.941,1.943,1,3.102,1h48.242c1.16,0,2.104,0.941,2.104,2.103V36.635z"/>
<path fill="#35C0CA" d="M4.492,46.148c0,0.744-0.605,1.348-1.348,1.348l0,0c-0.746,0-1.35-0.604-1.35-1.348l0,0
	c0-0.744,0.604-1.348,1.35-1.348l0,0C3.887,44.801,4.492,45.404,4.492,46.148L4.492,46.148z"/>
<path fill="#35C0CA" d="M24.758,46.148c0,0.744-0.604,1.348-1.348,1.348H7.295c-0.744,0-1.348-0.604-1.348-1.348l0,0
	c0-0.744,0.604-1.348,1.348-1.348H23.41C24.154,44.801,24.758,45.404,24.758,46.148L24.758,46.148z"/>
<path fill="#35C0CA" d="M4.492,52.041c0,0.744-0.605,1.348-1.348,1.348l0,0c-0.746,0-1.35-0.604-1.35-1.348l0,0
	c0-0.744,0.604-1.348,1.35-1.348l0,0C3.887,50.693,4.492,51.297,4.492,52.041L4.492,52.041z"/>
<path fill="#35C0CA" d="M24.758,52.041c0,0.744-0.604,1.348-1.348,1.348H7.295c-0.744,0-1.348-0.604-1.348-1.348l0,0
	c0-0.744,0.604-1.348,1.348-1.348H23.41C24.154,50.693,24.758,51.297,24.758,52.041L24.758,52.041z"/>
<path fill="#35C0CA" d="M4.492,57.933c0,0.744-0.605,1.348-1.348,1.348l0,0c-0.746,0-1.35-0.604-1.35-1.348l0,0
	c0-0.745,0.604-1.349,1.35-1.349l0,0C3.887,56.584,4.492,57.188,4.492,57.933L4.492,57.933z"/>
<path fill="#35C0CA" d="M24.758,57.933c0,0.744-0.604,1.348-1.348,1.348H7.295c-0.744,0-1.348-0.604-1.348-1.348l0,0
	c0-0.745,0.604-1.349,1.348-1.349H23.41C24.154,56.584,24.758,57.188,24.758,57.933L24.758,57.933z"/>
<path fill="#35C0CA" d="M32.359,46.148c0,0.744-0.605,1.348-1.348,1.348l0,0c-0.746,0-1.348-0.604-1.348-1.348l0,0
	c0-0.744,0.602-1.348,1.348-1.348l0,0C31.754,44.801,32.359,45.404,32.359,46.148L32.359,46.148z"/>
<path fill="#35C0CA" d="M52.625,46.148c0,0.744-0.604,1.348-1.348,1.348H35.162c-0.742,0-1.348-0.604-1.348-1.348l0,0
	c0-0.744,0.605-1.348,1.348-1.348h16.115C52.021,44.801,52.625,45.404,52.625,46.148L52.625,46.148z"/>
<path fill="#35C0CA" d="M32.359,52.041c0,0.744-0.605,1.348-1.348,1.348l0,0c-0.746,0-1.348-0.604-1.348-1.348l0,0
	c0-0.744,0.602-1.348,1.348-1.348l0,0C31.754,50.693,32.359,51.297,32.359,52.041L32.359,52.041z"/>
<path fill="#35C0CA" d="M52.625,52.041c0,0.744-0.604,1.348-1.348,1.348H35.162c-0.742,0-1.348-0.604-1.348-1.348l0,0
	c0-0.744,0.605-1.348,1.348-1.348h16.115C52.021,50.693,52.625,51.297,52.625,52.041L52.625,52.041z"/>
<path fill="#35C0CA" d="M32.359,57.933c0,0.744-0.605,1.348-1.348,1.348l0,0c-0.746,0-1.348-0.604-1.348-1.348l0,0
	c0-0.745,0.602-1.349,1.348-1.349l0,0C31.754,56.584,32.359,57.188,32.359,57.933L32.359,57.933z"/>
<path fill="#35C0CA" d="M52.625,57.933c0,0.744-0.604,1.348-1.348,1.348H35.162c-0.742,0-1.348-0.604-1.348-1.348l0,0
	c0-0.745,0.605-1.349,1.348-1.349h16.115C52.021,56.584,52.625,57.188,52.625,57.933L52.625,57.933z"/>
<g>
	<g>
		<path fill="none" stroke="#35C0CA" stroke-width="2" stroke-miterlimit="10" d="M35.215,15.344
			c-0.449-0.451-0.996-0.678-1.633-0.678h-2.023l-0.461-1.227c-0.115-0.295-0.324-0.549-0.627-0.763
			c-0.305-0.214-0.615-0.321-0.936-0.321H24.91c-0.318,0-0.631,0.107-0.934,0.321c-0.305,0.214-0.514,0.468-0.627,0.763
			l-0.461,1.227h-2.023c-0.637,0-1.184,0.227-1.633,0.678c-0.453,0.451-0.68,0.996-0.68,1.635v8.092c0,0.639,0.227,1.184,0.68,1.635
			c0.449,0.451,0.996,0.678,1.633,0.678h12.717c0.637,0,1.184-0.227,1.633-0.678c0.451-0.451,0.678-0.996,0.678-1.635v-8.092
			C35.893,16.34,35.666,15.795,35.215,15.344L35.215,15.344z"/>
	</g>
</g>
<path fill="none" stroke="#35C0CA" stroke-width="2" stroke-miterlimit="10" d="M29.707,23.51c-0.688,0.689-1.516,1.033-2.484,1.033
	s-1.797-0.344-2.484-1.033c-0.689-0.688-1.033-1.517-1.033-2.484c0-0.969,0.344-1.797,1.033-2.486
	c0.688-0.688,1.516-1.032,2.484-1.032s1.797,0.344,2.484,1.032c0.691,0.688,1.035,1.518,1.035,2.486
	C30.742,21.993,30.398,22.821,29.707,23.51L29.707,23.51z"/>
</svg>
