<?xml version="1.0" encoding="utf-8"?>
<!-- Generator: Adobe Illustrator 15.1.0, SVG Export Plug-In  -->
<!DOCTYPE svg PUBLIC "-//W3C//DTD SVG 1.1//EN" "http://www.w3.org/Graphics/SVG/1.1/DTD/svg11.dtd" [
	<!ENTITY ns_flows "http://ns.adobe.com/Flows/1.0/">
]>
<svg version="1.1"
	 xmlns="http://www.w3.org/2000/svg" xmlns:xlink="http://www.w3.org/1999/xlink" xmlns:a="http://ns.adobe.com/AdobeSVGViewerExtensions/3.0/"
	 x="0px" y="0px" width="37px" height="42px" viewBox="0 0 37 42" enable-background="new 0 0 37 42" xml:space="preserve">
<defs>
</defs>
<path fill="#38BFC3" d="M36.844,18.421C36.844,8.248,28.598,0,18.422,0C8.249,0,0,8.248,0,18.421
	c0,7.822,4.885,14.489,11.763,17.161l6.659,6.659l6.658-6.658C31.959,32.912,36.844,26.245,36.844,18.421z M18.422,11.062
	c4.064,0,7.36,3.295,7.36,7.36c0,4.064-3.296,7.359-7.36,7.359c-4.065,0-7.36-3.295-7.36-7.359
	C11.062,14.358,14.356,11.062,18.422,11.062z"/>
</svg>
